<svg width="99" height="25" viewBox="0 0 99 25" fill="none" xmlns="http://www.w3.org/2000/svg">
<rect width="33" height="25" rx="8" fill="white" fill-opacity="0.2"/>
<path d="M15.962 8.6L12.386 15.248C12.042 15.888 11.626 16.372 11.138 16.7C10.658 17.028 10.134 17.192 9.56598 17.192C9.12598 17.192 8.66998 17.096 8.19798 16.904L8.66598 15.428C9.00198 15.532 9.28198 15.584 9.50598 15.584C9.74598 15.584 9.96198 15.528 10.154 15.416C10.346 15.296 10.522 15.112 10.682 14.864L10.754 14.768L7.44198 8.6H9.51798L11.75 13.112L14.054 8.6H15.962ZM21.1378 13.616H19.7938V17H17.8618V8.6H19.7938V11.996H21.1858L23.3938 8.6H25.4458L22.6978 12.656L25.5298 17H23.3218L21.1378 13.616Z" fill="white"/>
<path d="M45.1488 8.6C45.8928 8.6 46.5368 8.724 47.0807 8.972C47.6328 9.22 48.0568 9.572 48.3528 10.028C48.6488 10.484 48.7968 11.024 48.7968 11.648C48.7968 12.264 48.6488 12.804 48.3528 13.268C48.0568 13.724 47.6328 14.076 47.0807 14.324C46.5368 14.564 45.8928 14.684 45.1488 14.684H43.4568V17H41.5128V8.6H45.1488ZM45.0408 13.1C45.6248 13.1 46.0688 12.976 46.3728 12.728C46.6768 12.472 46.8288 12.112 46.8288 11.648C46.8288 11.176 46.6768 10.816 46.3728 10.568C46.0688 10.312 45.6248 10.184 45.0408 10.184H43.4568V13.1H45.0408ZM58.4757 8.6L54.8997 15.248C54.5557 15.888 54.1397 16.372 53.6517 16.7C53.1717 17.028 52.6477 17.192 52.0797 17.192C51.6397 17.192 51.1837 17.096 50.7117 16.904L51.1797 15.428C51.5157 15.532 51.7957 15.584 52.0197 15.584C52.2597 15.584 52.4757 15.528 52.6677 15.416C52.8597 15.296 53.0357 15.112 53.1957 14.864L53.2677 14.768L49.9557 8.6H52.0317L54.2637 13.112L56.5677 8.6H58.4757Z" fill="white"/>
<rect x="66" width="33" height="25" rx="8" fill="#F0145A"/>
<path d="M80.6289 15.44V17H74.1249V8.6H80.4729V10.16H76.0569V11.984H79.9569V13.496H76.0569V15.44H80.6289ZM90.8797 8.6V17H89.2837L85.0957 11.9V17H83.1757V8.6H84.7837L88.9597 13.7V8.6H90.8797Z" fill="white"/>
</svg>
